<svg xmlns="http://www.w3.org/2000/svg" viewBox="19.98 3 1955.02 442.22" height="100px" width="100px" transform="rotate(0) scale(1, 1)"><path d="M1317 3h40l1 57 10-7c15.227-8.266 31.63-8.428 48-4 16.585 6.22 28.36 18.718 35.875 34.5 9.596 21.126 9.68 45.703 1.813 67.375-4.26 10.25-9.924 18.214-17.688 26.125l-1.898 1.973c-10.11 9.703-24.354 13.868-38.102 14.027-14.49-.829-28.757-5.215-39-16l-.184 2.336-.254 3.039c-.08.998-.162 1.995-.246 3.023C1356 188 1356 188 1355 190h-38V3Zm46.242 86.992c-4.887 6.257-6.556 11.285-6.613 19.274-.01.792-.018 1.585-.027 2.402a781.146 781.146 0 0 0-.028 5.023 499.348 499.348 0 0 1-.111 7.61c-.086 8.668-.12 15.622 5.537 22.699l1.875 2.75c6.068 6.425 12.37 9.21 21.125 10.25 10.38-.295 17.22-3.846 24.25-11.25 8.699-10.302 10.737-22.57 9.75-35.75-1.226-7.805-3.677-14.399-8-21l-1.75-2.688c-6.535-6.716-13.368-9.767-22.625-10.624-9.51.82-17.025 4.099-23.383 11.304ZM575 51c2.862 2.851 5.436 5.882 8 9l2 2 .996-1.54c4.687-6.782 10.281-11.71 18.379-13.898 8.343-1.412 16.607-.45 23.625 4.438 9.265 7.273 12.42 16.692 14 28 .251 3.78.264 7.542.243 11.33l.006 3.252c.003 3.506-.007 7.013-.019 10.52v7.344c-.002 5.109-.01 10.217-.024 15.326-.017 6.563-.021 13.126-.02 19.69 0 5.043-.006 10.087-.013 15.131l-.006 7.266c-.002 3.368-.011 6.736-.022 10.104l.002 3.054-.013 2.76-.005 2.413C642 189 642 189 641 190c-2.594.089-5.16.115-7.754.098l-2.35-.005c-2.486-.005-4.972-.018-7.458-.03-1.682-.006-3.364-.01-5.045-.014-4.131-.011-8.262-.028-12.393-.049l-.018-3.953c-.057-12.286-.13-24.572-.218-36.859a6643.82 6643.82 0 0 1-.11-18.95c-.026-6.095-.067-12.19-.117-18.285-.017-2.326-.028-4.652-.035-6.979-.01-3.256-.037-6.512-.07-9.768l.005-2.92c-.082-6.654-.082-6.654-3.437-12.286-3.481-.435-5.673-.109-9 1-1.167 1.917-1.167 1.917-2 4l-1 2a61.376 61.376 0 0 0-.151 4.106l-.026 2.605-.012 2.863-.026 3.011c-.017 2.162-.032 4.324-.045 6.486-.021 3.415-.048 6.831-.077 10.246-.07 8.483-.13 16.965-.19 25.448-.05 7.165-.105 14.33-.165 21.495-.027 3.376-.047 6.751-.068 10.126l-.05 6.169-.013 2.87c-.063 6.461-.063 6.461-1.177 7.575-2.594.089-5.16.115-7.754.098l-2.35-.005c-2.486-.005-4.972-.018-7.458-.03-1.682-.006-3.364-.01-5.045-.014-4.131-.011-8.262-.028-12.393-.049l-.018-3.908c-.057-12.154-.13-24.307-.218-36.46-.044-6.25-.084-12.497-.11-18.746-.026-6.03-.067-12.06-.117-18.09-.017-2.3-.028-4.6-.035-6.901-.01-3.223-.037-6.445-.07-9.667l.005-2.882c-.074-5.215-.596-8.793-3.437-13.346-2.79-.419-2.79-.419-6 0-3.724 3.047-6.643 6.178-7.262 11.07l-.016 2.245-.034 2.592-.007 2.819-.03 2.987c-.031 3.257-.048 6.514-.065 9.771a7465.921 7465.921 0 0 0-.187 24.61c-.04 6.067-.091 12.133-.141 18.199-.097 11.902-.18 23.805-.258 35.707h-35V49h35l1 11 2.938-3.688C548.183 45.736 563.141 42.225 575 51ZM982 49h36c2.795 23.457 5.48 46.913 7.743 70.428l.236 2.434c.144 1.486.286 2.972.426 4.458.379 3.929.928 7.79 1.595 11.68l.397-2.664c1.247-8.354 2.497-16.708 3.75-25.061.644-4.293 1.287-8.586 1.927-12.879.62-4.157 1.243-8.313 1.867-12.469l.705-4.716c.332-2.232.667-4.463 1.004-6.693l.572-3.823c1.146-6.918 2.486-13.803 3.778-20.695h35c1.335 4.673 2.417 8.88 3.205 13.615l.647 3.856.68 4.123.716 4.301c.5 3.002.998 6.005 1.493 9.007a5782.2 5782.2 0 0 0 1.896 11.413c.494 2.963.986 5.927 1.477 8.89l.699 4.2A758.659 758.659 0 0 1 1092 137c1.685-1.685 1.392-3.877 1.617-6.193l.334-3.376.354-3.704.572-5.813c.269-2.74.533-5.482.798-8.223a12251.3 12251.3 0 0 1 1.755-17.964l.387-3.95c1.278-12.94 2.72-25.857 4.183-38.777h35a3019.189 3019.189 0 0 1-6.54 53.441l-.988 7.55-2.052 15.622c-.792 6.016-1.579 12.034-2.364 18.051-.761 5.835-1.527 11.67-2.295 17.505-.325 2.469-.647 4.938-.969 7.408-.446 3.42-.897 6.838-1.35 10.257l-.399 3.096-.373 2.797-.321 2.442C1119 189 1119 189 1118 190c-1.412.093-2.83.117-4.244.114h-2.73l-2.967-.016-3.023-.005c-3.2-.005-6.399-.018-9.599-.03-2.163-.006-4.326-.01-6.49-.014-5.316-.011-10.631-.028-15.947-.049-1.829-6.85-3.097-13.749-4.313-20.73a6271.52 6271.52 0 0 1-2.001-11.5c-.674-3.901-1.364-7.8-2.053-11.698-2.501-14.331-4.562-28.56-5.633-43.072l-.104 1.814c-1.02 16.754-3.272 33.113-6.21 49.633-.581 3.276-1.151 6.554-1.714 9.833-.546 3.175-1.103 6.348-1.66 9.52l-.612 3.545-.587 3.273-.506 2.867C1047 186 1047 186 1045 190h-44c-2.25-10.125-2.25-10.125-2.886-14.78l-.442-3.195-.46-3.41-.503-3.665c-.451-3.29-.899-6.582-1.345-9.873-.373-2.756-.75-5.512-1.126-8.268-.887-6.503-1.77-13.006-2.652-19.51-.907-6.694-1.82-13.388-2.737-20.082-.789-5.765-1.574-11.53-2.357-17.295-.466-3.436-.934-6.872-1.405-10.307a5324.97 5324.97 0 0 1-1.558-11.489l-.472-3.422-.425-3.177-.372-2.739c-.303-3.25-.26-6.524-.26-9.788ZM668 3h40l1 59 8-7c14.608-8.916 31.072-10.634 47.547-7.277C775.996 50.827 785.158 57.28 792 67c5.914 10.593 8.322 20.263 8.227 32.293v2.99c0 3.23-.016 6.46-.032 9.69l-.008 6.754c-.008 5.904-.027 11.807-.05 17.71-.02 6.034-.03 12.067-.04 18.1-.02 11.821-.055 23.642-.097 35.463-5.536.025-11.072.043-16.608.055-1.884.005-3.77.012-5.654.02-2.703.013-5.406.018-8.11.023l-2.569.015c-2.02 0-4.04-.05-6.059-.113-1.862-1.862-1.13-4.523-1.143-7l.001-2.615-.01-2.74a3074.66 3074.66 0 0 1-.017-5.915c-.007-3.123-.022-6.246-.041-9.37-.053-8.883-.1-17.767-.116-26.65a2785.3 2785.3 0 0 0-.081-16.285 882.55 882.55 0 0 1-.015-6.201c.002-2.902-.02-5.802-.048-8.703l.02-2.571c-.099-6.35-1.566-11.802-6.033-16.514-5.001-4.348-9.159-4.798-15.544-4.706-9.073.823-16.02 5.58-21.973 12.27l-1.725 1.746c-7.196 8.42-6.245 17.531-6.142 28.008-.007 1.911-.017 3.823-.03 5.734-.027 5.003-.013 10.004.011 15.007.022 6.103-.002 12.207-.022 18.311-.015 4.742-.022 9.483-.006 14.225l.004 2.626c.003 1.624.01 3.248.02 4.872.001 1.824-.049 3.648-.11 5.471l-1 1h-39V3ZM1275 62c17.784 17.842 18 39.683 18 64h-102c3.865 16.846 3.865 16.846 14.563 29 5.707 3.32 10.691 4.366 17.25 4.313l2.135-.013c8.246-.179 13.842-1.843 20.052-7.3h2l2-4 4-8h39c0 13.432-5.499 24.491-14.625 34.188-15.142 14.375-35.676 19.094-56.071 18.769-19.714-.822-37.7-6.11-52.304-19.957-14.633-16.657-19.891-37.426-18.898-59.241 1.36-19.873 7.91-38.046 22.898-51.759 27.646-21.404 74.88-23.066 102 0Zm-77 27c-2.827 4.218-2.827 4.218-4 9h58c-1.1-7.703-2.522-10.01-8-15-14.109-10.208-34.903-6.517-46 6ZM1107.59 313.031c14.13 12.07 21.73 28.527 23.41 46.969 1.473 23.322-1.825 45.11-17.18 63.629-11.312 12.146-27.097 19.53-43.71 20.548-23.212.473-44.06-.75-62.11-17.177-14.86-14.415-20.716-33.132-21.285-53.462-.169-14.214 1.815-27.747 8.285-40.538l1.27-2.57c8.202-15.082 22.477-24.838 38.68-29.688 24.71-6.012 52.155-3.777 72.64 12.29ZM1037 339c-9.446 12.013-10.806 25.032-10 40 1.454 11.076 5.28 20.808 14.273 27.82 8.006 5.47 16.65 6.244 26.09 4.825 7.794-2.063 14.129-7.566 18.309-14.364 1.3-2.724 2.366-5.42 3.328-8.281l.738-2.066c3.845-13.364 2.172-30.138-4.363-42.247-4.459-6.888-10.417-11.59-18.375-13.687-10.94-1.045-21.953-.27-30 8ZM293.59 313.031C307.704 325.087 315.358 341.568 317 360c1.066 17.62-.08 33.934-8 50l-1.27 2.578c-7.952 14.576-21.172 23.898-36.73 28.86-20.78 5.91-46.133 4.701-65.29-5.743C189.315 425.441 179.975 411.527 175 393c-4.891-22.783-2.455-47.1 9.941-67.121 10.33-14.445 25.128-23.037 42.391-26.559 23.17-3.796 47.361-1.11 66.258 13.711Zm-72.078 27.66c-8.77 11.468-9.837 27.124-8.04 40.942 1.844 10.222 5.468 18.69 13.801 25.187 7.417 5.067 14.934 5.977 23.727 5.18 9.018-1.921 15.169-6.253 20.273-13.91 1.089-1.993 1.93-3.964 2.727-6.09l.902-2.281c4.396-13.127 3.729-30.02-2.226-42.492-4.12-7.376-9.037-12.232-16.926-15.497-12.347-3.28-25.674-.772-34.238 8.961ZM502 301h40l.012 8.47c.018 9.26.062 18.52.12 27.78.034 5.612.06 11.223.064 16.834.004 5.421.032 10.841.077 16.262.013 2.063.018 4.126.013 6.188-.487 15.12-.487 15.12 5.714 28.466 4.61 4.256 9.45 5.315 15.54 5.207 8.254-.694 14.62-4.466 20.46-10.207 6.042-7.291 10.135-12.376 10.205-22.03l.03-2.513c.032-2.749.057-5.497.081-8.246l.063-5.709c.056-5.014.105-10.028.153-15.042.06-6.013.125-12.026.19-18.04.099-9.14.187-18.28.278-27.42h40v140h-39l-2-13-3.813 3.688c-4.99 4.42-9.968 7.006-16.187 9.312l-2.406.969c-12.997 4.442-30.19 3.79-42.594-1.969-5.392-2.946-9.875-6.429-14-11l-1.457-1.445c-9.383-9.835-11.874-23.647-11.77-36.756v-2.96c0-3.198.016-6.395.032-9.593l.008-6.687c.008-5.845.027-11.689.05-17.533.02-5.973.03-11.946.04-17.919.02-11.702.056-23.405.097-35.107ZM1269 307c12.231 9.529 18.088 22.898 20 38 .512 7.441.351 14.913.293 22.367a4225.856 4225.856 0 0 1-.087 23.096c-.03 5.699-.044 11.397-.06 17.096-.032 11.147-.084 22.294-.146 33.441h-40l-.078-19.52c-.025-4.097-.052-8.194-.082-12.29-.048-6.494-.092-12.987-.111-19.48-.015-5.24-.05-10.479-.097-15.718a855.622 855.622 0 0 1-.024-5.976c.529-16.342.529-16.342-6.09-30.735-5.053-4.495-9.86-4.629-16.315-4.558-9.74.843-16.132 5.798-22.469 12.77-7.787 9.774-8.005 18.192-7.832 30.37-.005 1.887-.015 3.775-.028 5.662-.025 4.924.004 9.846.044 14.77.038 5.931.008 11.862-.01 17.793-.02 8.971.044 17.94.092 26.912h-40V301h39l1 14 3.688-3.625c18.776-16.576 48.534-17.949 69.312-4.375ZM128.496 311.781c10.731 9.51 14.937 20.113 16.504 34.219h-37l-4-10c-5.561-5.803-11.502-7.32-19.277-7.965-7.411-.096-13.994 1.14-19.723 5.965-1.57 3.139-1.352 5.539-1 9 4.936 7.32 15.067 8.926 23.215 10.563 2.572.488 5.147.967 7.722 1.437 16.734 3.065 35.223 6.73 46.477 20.668 6.517 9.582 7.774 19.986 6.16 31.324-2.354 11.123-7.766 19.532-16.906 26.293-18.767 12.063-44.484 13.824-65.994 9.64-15.345-3.646-29.561-11.393-38.174-24.988-2.44-4.473-4.182-9.02-5.5-13.937l-.688-2.563C19.87 397.986 20 394.481 20 391h37l3 12c3.657 5.851 8.675 8.883 15.27 10.586 9.405 1.426 20.55 1.93 28.73-3.586 2.453-2.654 2.453-2.654 3-6-.528-4.371-1.126-6.31-4.61-9.063-3.647-2.084-7.168-3.28-11.203-4.312l-2.31-.621c-5.795-1.533-11.628-2.886-17.466-4.239C54.131 381.742 37.76 377.276 27 362c-5.335-9.332-5.46-20.878-3.34-31.219C27.32 319.502 35.013 312.026 45 306c6.727-3.385 13.56-5.822 21-7l2.027-.336c20.632-2.843 43.699.033 60.47 13.117ZM1432.285 312.738c7.788 7.008 13.032 17.977 14.715 28.262v5h-37l-4-12c-1.646-1.12-1.646-1.12-4-2l-3.625-1.563c-9.366-3.393-19.313-3.159-28.438.938-2.248 1.886-3.168 2.78-3.937 5.625-.122 4.182-.122 4.182 1 8 9.75 7.342 22.713 8.645 34.438 10.875 17.738 3.54 33.417 7.87 44.562 23.125 5.662 10.038 5.429 23.01 2.438 33.875-4.045 11.54-12.456 18.957-22.938 24.813-18.98 8.698-44.027 9.77-63.918 3.714-16.019-6.27-28.184-13.777-35.957-29.902-2.684-6.603-3.625-13.414-3.625-20.5h37l3 11c2.922 6.31 7.79 8.502 14 11 8.65 2.908 19.865 1.83 28.082-1.734 2.263-1.493 3.494-2.967 4.918-5.266.552-3.707.41-5.377-1.663-8.53-7.107-7.514-20.438-8.833-30.15-10.908-37.126-8.265-37.126-8.265-47.187-23.562-5.192-9.834-6.811-20.268-4.246-31.219 4.213-12.03 12.723-21.473 24.121-27.234 26.535-11.012 59.185-9.476 82.41 8.191ZM361 3h67v154h46c.03 7.89.03 7.89.063 15.938l.027 5.034.008 3.93.015 2.079c0 1.673-.05 3.347-.113 5.019-1 1-1 1-3.153 1.123l-2.903-.003-3.318.004-3.673-.01h-3.843c-3.487 0-6.975-.006-10.462-.013-3.641-.006-7.282-.006-10.923-.008-6.899-.003-13.798-.011-20.697-.021-7.852-.011-15.704-.017-23.557-.022-16.157-.01-32.314-.028-48.471-.05v-33h45V36h-27c-.781-3.907-1.128-6.94-1.133-10.852l-.004-3.328.012-3.445-.012-3.469.004-3.32.004-3.03C360 6 360 6 361 3ZM361 255h67v154h46v32H343v-32h45V288h-27c-.781-3.907-1.128-6.94-1.133-10.852l-.004-3.328.012-3.445-.012-3.469.004-3.32.004-3.03C360 258 360 258 361 255ZM1663.078 138.61c5.372 3.886 9.61 8.664 10.77 15.324.574 7.786-1.288 12.818-5.848 19.066-2.217 2.56-4.594 4.923-7.023 7.281l-2.014 1.994a1636.205 1636.205 0 0 1-6.338 6.225 3653.694 3653.694 0 0 0-6.317 6.225 1030.299 1030.299 0 0 1-3.917 3.847c-3.733 3.673-7.218 7.483-10.64 11.447-2.866 3.242-5.926 6.279-8.997 9.325l-1.988 1.983a4968.85 4968.85 0 0 1-6.204 6.173l-4.24 4.227c-3.438 3.427-6.879 6.85-10.322 10.273l1.828-1.164 2.422-1.461 2.39-1.477c2.36-.898 2.36-.898 4.314-.133 2.01 1.213 3.49 2.431 5.143 4.089l1.75 1.741 1.86 1.882 1.95 1.951c1.362 1.365 2.72 2.732 4.078 4.1 2.054 2.074 4.117 4.139 6.181 6.202a7874.93 7874.93 0 0 1 3.979 3.997l1.84 1.844c3.704 3.743 7.203 7.614 10.648 11.595 2.09 2.37 4.302 4.582 6.57 6.78l2.625 2.574a1782.05 1782.05 0 0 0 5.39 5.234l2.61 2.566 2.357 2.29c4.48 5.186 6.221 10.64 6.065 17.39-1.123 7.024-4.618 12.414-10 17-4.897 2.918-10.354 3.923-16 3-8.336-2.358-13.664-8.008-19.547-14.059a1544.357 1544.357 0 0 1-10.64-10.785c-2.596-2.647-5.207-5.28-7.817-7.916a4212.485 4212.485 0 0 1-13.747-13.957 771.857 771.857 0 0 0-4.918-4.943c-2.121-2.13-4.103-4.316-6.077-6.582-7.109-7.945-14.76-15.369-22.316-22.883l-4.647-4.633c-3.761-3.75-7.525-7.497-11.291-11.242 1.34-2.983 2.81-5.052 5.133-7.344l1.921-1.911 2.071-2.03 2.13-2.114c2.243-2.226 4.494-4.445 6.745-6.663 2.25-2.223 4.5-4.448 6.746-6.675a1462.35 1462.35 0 0 1 4.2-4.147l1.921-1.901 1.691-1.666c1.656-1.695 1.656-1.695 3.442-4.549h2l.69-1.67c1.697-3.018 3.84-5.138 6.275-7.602l1.529-1.553c1.666-1.69 3.34-3.373 5.014-5.054l3.499-3.526c2.445-2.462 4.896-4.92 7.348-7.376 3.133-3.138 6.249-6.291 9.36-9.449 2.405-2.434 4.82-4.856 7.238-7.275a675.89 675.89 0 0 0 3.447-3.485c9.41-9.569 20.114-18.105 33.678-10.4ZM1882 139c2.613 1.962 4.854 4.21 7.131 6.548l2.009 2.001c2.175 2.174 4.332 4.365 6.489 6.556a3711.344 3711.344 0 0 1 16.498 16.62c3.233 3.27 6.478 6.527 9.723 9.784a9990.87 9990.87 0 0 1 13.876 13.958c2.093 2.11 4.183 4.224 6.272 6.338l1.841 1.854c3.694 3.75 7.21 7.615 10.646 11.603 1.89 2.167 3.877 4.213 5.917 6.238l2.256 2.246 2.28 2.254 2.36 2.348c1.899 1.886 3.8 3.77 5.702 5.652-1.276 2.8-2.59 4.834-4.778 6.99l-1.69 1.68-1.825 1.783-1.892 1.876a2202.26 2202.26 0 0 1-6.003 5.921 3585.31 3585.31 0 0 0-5.949 5.878 1074.63 1074.63 0 0 1-3.7 3.647c-2.897 2.864-5.67 5.773-8.32 8.867-5.146 5.952-10.74 11.481-16.277 17.065l-1.789 1.805a6934.65 6934.65 0 0 1-9.364 9.425 2068.186 2068.186 0 0 0-7.695 7.778c-3.11 3.158-6.231 6.304-9.362 9.442a689.183 689.183 0 0 0-3.538 3.585 598.05 598.05 0 0 1-4.972 4.996l-1.438 1.487c-4.768 4.683-9.825 6.488-16.345 7.212-5.625-.265-10.742-2.304-14.895-6.12-4.416-4.997-6.463-8.776-6.543-15.567l-.086-3.266c1.15-8.696 6.431-14.004 12.473-19.851l2.33-2.306c2.439-2.41 4.891-4.806 7.345-7.202 2.463-2.42 4.922-4.842 7.379-7.267 1.525-1.503 3.054-3.004 4.587-4.5l2.084-2.045 1.84-1.798c1.523-1.477 1.523-1.477 2.423-3.515h2l1-3h2l.792-1.768c2.138-3.95 5.442-6.876 8.583-10.044l2.04-2.14 1.983-2.005 1.803-1.843c1.799-1.2 1.799-1.2 3.79-1.02 3.21 1.31 6.032 3.045 9.009 4.82l-1.848-1.848L1901 221l-2.584-2.552c-2.141-2.17-4.15-4.39-6.146-6.69-4.307-4.816-8.841-9.36-13.446-13.89l-2.234-2.204c-3.08-3.034-6.16-6.066-9.256-9.083-2.284-2.229-4.554-4.47-6.822-6.714l-2.106-2.033c-5.074-5.047-8.758-10.01-9.972-17.178.01-8.31 1.277-13.172 7.023-19.18 7.764-7.088 17.52-7.075 26.543-2.476ZM738 261v40h33v33h-33c.062 11.406.062 11.406.16 22.813.048 4.654.093 9.309.111 13.963.015 3.755.05 7.509.097 11.263.015 1.43.023 2.86.024 4.289.002 2.008.032 4.016.062 6.024l.027 3.459c.646 3.967 1.954 6.115 4.519 9.189 6.126 3.389 13.538 3.463 20.383 3.512l2.85.054c2.963.054 5.927.088 8.892.122 2.026.033 4.052.067 6.078.103 4.932.087 9.864.147 14.797.209v32c-7.774.063-15.547.123-23.32.155a2126 2126 0 0 0-10.864.071c-3.494.033-6.99.05-10.484.059-1.966.008-3.933.031-5.899.055-13.647.002-24.382-3.628-34.62-12.84-11.31-11.93-13.122-26.522-13.008-42.156l.008-4.54c.008-3.958.027-7.917.05-11.876.02-4.049.03-8.098.04-12.147.02-7.927.056-15.854.097-23.781h-28v-33h28v-23c8.609-4.45 17.31-8.548 26.188-12.438l3.078-1.36 2.902-1.26 2.602-1.135C735 261 735 261 738 261ZM849 301h67v108h46v32H831v-32h45v-75h-27v-33ZM1805 139c4.524 3.805 9.261 8.903 10 15 .576 14.343-8.358 29.025-14.005 41.903-2.586 5.898-5.157 11.803-7.73 17.706l-1.592 3.652a5064.532 5064.532 0 0 0-14.13 32.778c-1.29 3.014-2.58 6.027-3.873 9.04a5175.215 5175.215 0 0 0-11.666 27.377c-1.728 4.087-3.465 8.17-5.203 12.251a1273.06 1273.06 0 0 0-2.431 5.768c-1.11 2.651-2.237 5.296-3.366 7.94l-.963 2.334c-2.784 6.441-6.69 12.876-13.416 15.688-6.55 2.546-12.319 2.257-18.809-.46-5.299-2.85-9.354-8.322-11.566-13.852-.738-6.275-.302-11.043 2-16.938l.793-2.033c3.088-7.754 6.55-15.354 9.965-22.967a1645.78 1645.78 0 0 0 11.742-26.875l.904-2.114 4.983-11.664c4.058-9.504 8.12-19.007 12.186-28.507 1.785-4.172 3.568-8.345 5.35-12.518 2.427-5.68 4.877-11.352 7.33-17.021a948.065 948.065 0 0 0 3.837-9.086c.78-1.866 1.571-3.728 2.365-5.588a520.763 520.763 0 0 0 2.926-6.998c3.43-7.946 7.44-13.454 15.369-17.254 6.966-1.306 12.73-.933 19 2.438ZM875 246h42v38h-42v-38Z" fill="#ffffff"/></svg>